<?xml version="1.0" encoding="utf-8"?>
<!-- Generator: Adobe Illustrator 22.0.1, SVG Export Plug-In . SVG Version: 6.00 Build 0)  -->
<svg version="1.1" id="Слой_1" xmlns="http://www.w3.org/2000/svg" xmlns:xlink="http://www.w3.org/1999/xlink" x="0px" y="0px"
	 viewBox="0 0 91.8 103.5" style="enable-background:new 0 0 91.8 103.5;" xml:space="preserve">
<g>
	<path d="M46,89.1c-8.1,0-16.2,0-24.2,0c-4.4,0-7.9-2.9-8.6-7.2c-0.1-0.5-0.1-1.1-0.1-1.6c0-12.3,0-24.7,0-37c0-2.9,1.1-5.2,3.4-7
		c8.1-6.6,16.1-13.3,24.2-20c3.4-2.8,7.5-2.8,10.9,0c7.9,6.6,15.9,13.3,24,19.9c2.2,1.8,3.4,4.1,3.4,7c0,12.3,0,24.7,0,37.1
		c0,4.4-2.5,7.7-6.5,8.6c-0.8,0.3-1.6,0.3-2.3,0.3C61.9,89.2,54,89.1,46,89.1z M45.9,83.9c7.9,0,15.8-0.1,23.6,0
		c2.3,0,4.1-1.4,4.1-4.1c-0.1-12-0.1-24.2,0-36.2c0-1.5-0.6-2.7-1.8-3.6c-7.8-6.3-15.5-12.8-23.2-19.1c-1.9-1.5-3.6-1.5-5.4,0
		c-7.8,6.5-15.6,12.9-23.5,19.3c-1.1,0.9-1.6,1.9-1.6,3.5c0,12.1,0,24.3,0,36.5c0,2.7,1.3,4,4,4C30.1,83.9,38,83.9,45.9,83.9z"/>
	<path d="M46.1,73.3c4.9,0,9.6,0,14.5,0c0.9,0,1.6,0.3,2.2,0.9c1.2,1.4,0.4,3.6-1.3,4c-0.3,0.1-0.8,0.1-1.1,0.1
		c-9.6,0-19.3,0-28.9,0c-0.4,0-0.9-0.1-1.4-0.2c-1.1-0.3-1.8-1.5-1.6-2.7c0.2-1.1,1.1-2.1,2.2-2.2c0.3,0,0.6,0,0.9,0
		C36.4,73.3,41.3,73.3,46.1,73.3z"/>
</g>
</svg>
