<?xml version="1.0" encoding="utf-8"?>
<!-- Generator: Adobe Illustrator 22.0.1, SVG Export Plug-In . SVG Version: 6.00 Build 0)  -->
<svg version="1.1" id="Слой_1" xmlns="http://www.w3.org/2000/svg" xmlns:xlink="http://www.w3.org/1999/xlink" x="0px" y="0px"
	 viewBox="0 0 90.8 90.7" style="enable-background:new 0 0 90.8 90.7;" xml:space="preserve">
<g>
	<path d="M0.2,55.6c0.5-1,1.3-1.6,2.4-1.9c1-0.3,2-0.6,3-1c1.6-0.5,2.8,0,3.3,1.4c0.5,1.3-0.2,2.6-1.8,3.1c-1.1,0.4-2.1,0.7-3.2,1
		c-2,0.6-2.7,0.3-3.7-1.4C0.2,56.4,0.2,56,0.2,55.6z"/>
	<path d="M90.2,56.8c-1,1.8-1.8,2.1-3.7,1.4c-1.1-0.4-2.2-0.7-3.3-1.1c-1.4-0.5-2-1.7-1.6-3c0.4-1.3,1.7-2,3.1-1.5
		c1.3,0.4,2.7,0.7,3.9,1.3c0.7,0.3,1.2,1.1,1.7,1.6C90.2,56,90.2,56.4,90.2,56.8z"/>
	<path d="M85,31.4c0,1.8-0.7,3.2-2,4.4c-4.6,4.4-9.1,8.9-13.7,13.3c-0.6,0.6-0.8,1.1-0.7,1.9c1.1,6.4,2.2,12.8,3.3,19.2
		c0.4,2.3-0.4,4.2-2.2,5.7c-1.9,1.4-4,1.7-6.1,0.6c-2.8-1.4-5.6-2.9-8.4-4.4c-3-1.6-6-3.1-8.9-4.7c-0.7-0.4-1.4-0.4-2.1,0
		c-5.7,3-11.3,6-17,8.9c-3.9,2-8.4-0.3-8.7-4.6c-0.1-1.4,0.3-2.9,0.5-4.3c0.9-5.5,1.9-11.1,2.9-16.6c0.1-0.8-0.2-1.2-0.7-1.7
		c-4.5-4.4-9-8.8-13.5-13.2c-1.9-1.8-2.6-3.9-1.8-6.4c0.8-2.5,2.7-3.8,5.3-4.1c6.3-0.9,12.5-1.8,18.8-2.7c0.8-0.1,1.2-0.5,1.6-1.2
		c2.8-5.8,5.6-11.5,8.5-17.2c1.4-2.8,4.2-4,7-3.2c1.8,0.5,3,1.7,3.8,3.4c2.8,5.7,5.6,11.3,8.4,17c0.4,0.8,0.9,1.2,1.8,1.3
		c6.3,0.9,12.6,1.8,18.9,2.7C82.8,26,84.9,28.4,85,31.4z M80.2,31.7c-0.1-1.2-0.8-1.4-1.5-1.5c-6.1-0.9-12.3-1.8-18.4-2.7
		c-2.6-0.3-4.4-1.6-5.5-3.9C52.1,18,49.3,12.5,46.6,7c-0.1-0.3-0.2-0.5-0.4-0.8c-0.5-0.8-1.5-0.8-2,0C44,6.4,43.9,6.7,43.8,7
		c-2.8,5.6-5.5,11.2-8.3,16.8c-1,2-2.5,3.3-4.8,3.6c-3,0.5-5.9,0.9-8.9,1.3c-3.5,0.5-7.1,1-10.6,1.6c-0.9,0.1-1.3,0.8-1,1.6
		c0.1,0.3,0.4,0.6,0.6,0.8c4.5,4.4,9.1,8.8,13.6,13.2c1.7,1.6,2.3,3.5,1.9,5.8c-1.1,6.3-2.2,12.6-3.2,18.9c-0.1,0.6-0.1,1.2,0.4,1.6
		c0.5,0.4,1,0.2,1.6-0.1c5.6-2.9,11.2-5.9,16.8-8.8c2.2-1.2,4.3-1.2,6.5,0c5.6,3,11.2,5.9,16.8,8.9c0.5,0.3,1.1,0.5,1.5,0
		c0.3-0.3,0.5-1,0.4-1.4c-1-6.2-2.1-12.4-3.2-18.6c-0.5-2.6,0.2-4.7,2.1-6.5c4.5-4.3,9-8.7,13.4-13.1C79.9,32.3,80.1,31.9,80.2,31.7
		z"/>
	<path d="M47.5,85.1c0,0.8,0.1,1.6,0,2.4c-0.1,1.2-1.1,2.1-2.3,2.1c-1.2,0-2.2-0.9-2.3-2.1c-0.1-1.6-0.1-3.2,0-4.8
		c0.1-1.2,1.1-2.1,2.3-2.1c1.3,0,2.2,0.8,2.4,2.1C47.6,83.5,47.5,84.3,47.5,85.1C47.5,85.1,47.5,85.1,47.5,85.1z"/>
	<path d="M23.7,9.4c0,1.1-0.6,2-1.5,2.4c-0.9,0.4-2,0.2-2.6-0.5c-1-1.3-2-2.6-2.9-4c-0.6-0.9-0.3-2.2,0.6-2.9c0.9-0.7,2.2-0.8,2.9,0
		c1.2,1.4,2.2,3,3.3,4.5C23.7,9,23.7,9.3,23.7,9.4z"/>
	<path d="M71.4,3.6c1.8,0.2,3.1,2.1,2.2,3.6c-0.9,1.4-1.9,2.8-2.9,4c-0.7,0.9-2.1,1-3,0.3c-1-0.7-1.4-2-0.7-3c0.9-1.4,1.9-2.7,2.9-4
		C70.2,4.1,70.9,3.9,71.4,3.6z"/>
</g>
</svg>
