<?xml version="1.0" encoding="utf-8"?>
<!-- Generator: Adobe Illustrator 22.0.1, SVG Export Plug-In . SVG Version: 6.00 Build 0)  -->
<svg version="1.1" id="Слой_1" xmlns="http://www.w3.org/2000/svg" xmlns:xlink="http://www.w3.org/1999/xlink" x="0px" y="0px"
	 viewBox="0 0 89.8 87.4" style="enable-background:new 0 0 89.8 87.4;" xml:space="preserve">
<g>
	<path d="M88,35.1c0,2-0.8,3.5-2.2,4.8c-5,4.8-9.9,9.7-14.9,14.4c-0.7,0.7-0.9,1.2-0.8,2.1c1.2,6.9,2.4,13.9,3.6,20.8
		c0.4,2.5-0.4,4.6-2.4,6.2c-2.1,1.5-4.3,1.8-6.6,0.7c-3-1.5-6.1-3.1-9.1-4.8c-3.3-1.7-6.5-3.4-9.7-5.1c-0.8-0.4-1.5-0.4-2.3,0
		c-6.2,3.3-12.3,6.5-18.4,9.7c-4.2,2.2-9.1-0.3-9.4-5c-0.1-1.5,0.3-3.1,0.5-4.7c1-6,2.1-12,3.1-18c0.1-0.9-0.2-1.3-0.8-1.8
		C13.9,49.5,9,44.8,4.2,40c-2.1-2-2.8-4.2-2-6.9c0.9-2.7,2.9-4.1,5.7-4.4c6.8-1,13.6-2,20.4-2.9c0.9-0.1,1.3-0.5,1.7-1.3
		c3-6.3,6.1-12.5,9.2-18.7c1.5-3,4.6-4.3,7.6-3.5c2,0.5,3.3,1.8,4.1,3.7c3,6.2,6.1,12.3,9.1,18.4c0.4,0.9,1,1.3,2,1.4
		c6.8,1,13.7,2,20.5,2.9C85.6,29.2,87.9,31.8,88,35.1z M82.8,35.4c-0.1-1.3-0.9-1.5-1.6-1.6c-6.6-1-13.3-2-20-2.9
		c-2.8-0.3-4.8-1.7-6-4.2c-2.9-6.1-6-12-8.9-18c-0.1-0.3-0.2-0.5-0.4-0.9c-0.5-0.9-1.6-0.9-2.2,0c-0.2,0.2-0.3,0.5-0.4,0.9
		c-3,6.1-6,12.1-9,18.2c-1.1,2.2-2.7,3.6-5.2,3.9c-3.3,0.5-6.4,1-9.7,1.4c-3.8,0.5-7.7,1.1-11.5,1.7c-1,0.1-1.4,0.9-1.1,1.7
		C7,36,7.3,36.3,7.5,36.5c4.9,4.8,9.9,9.5,14.7,14.3c1.8,1.7,2.5,3.8,2.1,6.3c-1.2,6.8-2.4,13.7-3.5,20.5c-0.1,0.7-0.1,1.3,0.4,1.7
		c0.5,0.4,1.1,0.2,1.7-0.1c6.1-3.1,12.1-6.4,18.2-9.5c2.4-1.3,4.7-1.3,7,0c6.1,3.3,12.1,6.4,18.2,9.7c0.5,0.3,1.2,0.5,1.6,0
		c0.3-0.3,0.5-1.1,0.4-1.5c-1.1-6.7-2.3-13.4-3.5-20.2c-0.5-2.8,0.2-5.1,2.3-7c4.9-4.7,9.8-9.4,14.5-14.2
		C82.5,36.1,82.7,35.6,82.8,35.4z"/>
</g>
</svg>
