<?xml version="1.0" encoding="utf-8"?>
<!-- Generator: Adobe Illustrator 22.0.1, SVG Export Plug-In . SVG Version: 6.00 Build 0)  -->
<svg version="1.1" id="Слой_1" xmlns="http://www.w3.org/2000/svg" xmlns:xlink="http://www.w3.org/1999/xlink" x="0px" y="0px"
	 viewBox="0 0 101.8 101.2" style="enable-background:new 0 0 101.8 101.2;" xml:space="preserve">
<g>
	<path d="M0.2,49.6c0.8-2.1,2.4-2.8,4.6-2.7c2.9,0.1,5.9,0,8.8,0c2.4,0,4,1.8,3.7,3.9c-0.2,1.7-1.7,2.9-3.6,3c-1.6,0-3.2,0-4.8,0
		c-1.4,0-2.9-0.1-4.3,0C2.4,54,1,53.2,0.2,51.2C0.2,50.7,0.2,50.2,0.2,49.6z"/>
	<path d="M100.5,51.2c-0.8,2.1-2.4,2.8-4.6,2.7c-2.8-0.1-5.7,0-8.5,0c-0.8,0-1.6-0.2-2.3-0.5c-1.3-0.6-1.9-2.2-1.6-3.6
		c0.3-1.3,1.4-2.5,2.8-2.7c0.4-0.1,0.9-0.1,1.4-0.1c2.8,0,5.5,0.1,8.3,0c2.2-0.1,3.7,0.6,4.6,2.7C100.5,50.2,100.5,50.7,100.5,51.2z
		"/>
	<path d="M49.6,100.6c-2.1-0.8-2.8-2.4-2.7-4.6c0.1-2.8,0-5.7,0-8.5c0-0.8,0.2-1.6,0.5-2.3c0.6-1.3,2.2-1.9,3.6-1.6
		c1.3,0.3,2.5,1.4,2.7,2.8c0.1,0.4,0.1,0.9,0.1,1.4c0,2.8-0.1,5.5,0,8.3c0.1,2.2-0.6,3.7-2.7,4.6C50.6,100.6,50.1,100.6,49.6,100.6z
		"/>
	<path d="M75.6,50.4c0,13.8-11.4,25.3-25.2,25.2c-14-0.1-25.2-11.3-25.2-25.3c0-13.9,11.5-25.3,25.2-25.2
		C64.2,25.3,75.6,36.7,75.6,50.4z M68.7,50.4c0-10.2-8-18.2-18.2-18.3c-10.2-0.1-18.3,8-18.4,18.3c0,10.2,8,18.2,18.2,18.3
		C60.5,68.8,68.7,60.7,68.7,50.4z"/>
	<path d="M46.9,8.7c0-1.6,0-3.3,0-4.9c0.1-1.9,1.3-3.2,3-3.5c1.5-0.2,3,0.6,3.6,2.1c0.2,0.5,0.3,1.1,0.3,1.6c0,3.2,0,6.5,0,9.7
		c0,1.5-0.6,2.7-2,3.3c-1.2,0.6-2.3,0.5-3.4-0.3c-1.1-0.8-1.5-1.9-1.5-3.1C46.9,11.9,46.9,10.3,46.9,8.7C46.9,8.7,46.9,8.7,46.9,8.7
		z"/>
	<path d="M86.8,83.5c-0.1,1.3-0.7,2.3-1.9,2.9c-1.2,0.6-2.3,0.5-3.4-0.2c-0.3-0.2-0.6-0.5-0.9-0.8c-2.2-2.2-4.4-4.4-6.6-6.6
		c-1.6-1.6-1.7-3.6-0.3-5c1.4-1.4,3.4-1.3,5,0.2c2.3,2.3,4.5,4.5,6.8,6.8C86.3,81.5,86.8,82.4,86.8,83.5z"/>
	<path d="M27.8,25.2c0,0.9-0.7,1.9-1.9,2.5c-1.2,0.6-2.4,0.5-3.5-0.3c-0.7-0.5-1.2-1.2-1.8-1.7c-1.9-1.9-3.8-3.8-5.7-5.7
		c-1.5-1.5-1.5-3.5-0.2-4.9c1.4-1.4,3.4-1.4,5,0.2c2.3,2.3,4.6,4.6,6.9,6.9C27.4,22.8,27.9,23.6,27.8,25.2z"/>
	<path d="M72.8,24.2c0.2-0.4,0.5-1.3,1.1-2c2.3-2.5,4.8-4.8,7.2-7.2c1.5-1.4,3.5-1.4,4.8,0c1.3,1.3,1.3,3.3,0,4.8
		c-2.4,2.5-4.8,4.9-7.3,7.3c-1.1,1-2.4,1.4-3.8,0.7C73.6,27.2,72.9,26.1,72.8,24.2z"/>
	<path d="M27.9,76.6c-0.2,0.4-0.5,1.3-1,1.9c-2.4,2.5-4.8,4.9-7.3,7.3c-1.4,1.4-3.4,1.4-4.7,0c-1.3-1.3-1.4-3.3,0-4.8
		c2.4-2.5,4.9-4.9,7.3-7.3c1-1,2.4-1.3,3.7-0.7C27.1,73.7,27.8,74.7,27.9,76.6z"/>
</g>
</svg>
