<?xml version="1.0" encoding="utf-8"?>
<!-- Generator: Adobe Illustrator 25.4.1, SVG Export Plug-In . SVG Version: 6.00 Build 0)  -->
<svg version="1.1" id="Capa_1" xmlns="http://www.w3.org/2000/svg" xmlns:xlink="http://www.w3.org/1999/xlink" x="0px" y="0px"
	 viewBox="0 0 16 16" style="enable-background:new 0 0 16 16;" xml:space="preserve">
<path d="M15.4,6.6c0.8,0.8,0.8,2,0,2.8c-0.8,0.8-2,0.8-2.8,0c-0.8-0.8-0.8-2,0-2.8C13.4,5.8,14.6,5.8,15.4,6.6"/>
<path d="M9.4,6.6c0.8,0.8,0.8,2,0,2.8s-2,0.8-2.8,0s-0.8-2,0-2.8S8.6,5.8,9.4,6.6"/>
<path d="M3.4,6.6c0.8,0.8,0.8,2,0,2.8s-2,0.8-2.8,0s-0.8-2,0-2.8S2.6,5.8,3.4,6.6"/>
</svg>
