<?xml version="1.0" encoding="utf-8"?>
<!-- Generator: Adobe Illustrator 25.4.1, SVG Export Plug-In . SVG Version: 6.00 Build 0)  -->
<svg version="1.1" id="Слой_1" xmlns="http://www.w3.org/2000/svg" xmlns:xlink="http://www.w3.org/1999/xlink" x="0px" y="0px"
	 viewBox="0 0 30 30" style="enable-background:new 0 0 30 30;" xml:space="preserve">
<g>
	<polygon points="13.2,23.8 7.4,17.8 3.1,21.6 1.7,20.2 7.4,15 13.2,21 22.2,11.6 23.6,13 	"/>
</g>
<polygon points="20.1,10.1 25.3,10.1 25.3,15.2 "/>
<g>
	<path d="M15,29.5C7,29.5,0.5,23,0.5,15C0.5,7,7,0.5,15,0.5C23,0.5,29.5,7,29.5,15C29.5,23,23,29.5,15,29.5z M15,2.5
		C8.1,2.5,2.5,8.1,2.5,15c0,6.9,5.6,12.5,12.5,12.5c6.9,0,12.5-5.6,12.5-12.5C27.5,8.1,21.9,2.5,15,2.5z"/>
</g>
</svg>
